# xmcd
#
# Track frame offsets: 
#        150
#        12733
#        26093
#        39199
#        56989
#        75301
#        90690
#        104542
#        116723
#        136430
#        150711
#        168931
#        182045
#        195636
#        213942
#        230691
#
# Disc length: 3292 seconds
#
# Revision: 1
# Processed by: cddbd v1.5.2PL0 Copyright (c) Steve Scherf et al.
# Submitted via: ExactAudioCopy v0.95b4
#
DISCID=d80cda10
DTITLE=CHILL OUT - A tribute to the BEATLES
DYEAR=2006
DGENRE=
TTITLE0=From Me To You
TTITLE1=Let It Be
TTITLE2=Michelle
TTITLE3=I'll Be Back
TTITLE4=Eleanor Rigby
TTITLE5=Yesterday
TTITLE6=Here There and Everywhere
TTITLE7=Something
TTITLE8=Hey Jude
TTITLE9=Strawberry Fields Forever
TTITLE10=Across The Universe
TTITLE11=And I Love Her
TTITLE12=Here Comes The Sun
TTITLE13=With a Little Help From My Friends
TTITLE14=A Day in The Life
TTITLE15=When I'm Sixtyfour
EXTD=
EXTT0=
EXTT1=
EXTT2=
EXTT3=
EXTT4=
EXTT5=
EXTT6=
EXTT7=
EXTT8=
EXTT9=
EXTT10=
EXTT11=
EXTT12=
EXTT13=
EXTT14=
EXTT15=
PLAYORDER=
